{"title":"Rajini Murugan 2016 Movies DVDScr XviD Clean Audio New B3STY","uid":13227147,"size":742439578,"categoryP":"video","categoryS":"movies","magnet":"?xt=urn:btih:583ddce7b23257bff8b9c580ca69be227a1eb6c5&amp;dn=Rajini+Murugan+2016+Movies+DVDScr+XviD+Clean+Audio+New+B3STY&amp;tr=udp%3A%2F%2Ftracker.leechers-paradise.org%3A6969&amp;tr=udp%3A%2F%2Fzer0day.ch%3A1337&amp;tr=udp%3A%2F%2Fopen.demonii.com%3A1337&amp;tr=udp%3A%2F%2Ftracker.coppersurfer.tk%3A6969&amp;tr=udp%3A%2F%2Fexodus.desync.com%3A6969","seeders":0,"leechers":0,"uploader":"basicssom","files":2,"time":1452883076,"description":"----------------------------------------------------------------\r\nRajini Murugan 2016 Tamil Movies DVDScr XviD AAC Clean Audio New Source with Sample B3STY\r\n\r\nSCREEN SHOTS &amp; POSTER:\r\n  \nhttp://doctorhosts.com/2016/1/RajiniMurugan/11.html  \nhttp://doctorhosts.com/2016/1/RajiniMurugan/1.html  \nhttp://doctorhosts.com/2016/1/RajiniMurugan/2.html  \nhttp://doctorhosts.com/2016/1/RajiniMurugan/3.html  \nhttp://doctorhosts.com/2016/1/RajiniMurugan/4.html  \nhttp://doctorhosts.com/2016/1/RajiniMurugan/5.html  \nhttp://doctorhosts.com/2016/1/RajiniMurugan/6.html  \nhttp://doctorhosts.com/2016/1/RajiniMurugan/7.html  \nhttp://doctorhosts.com/2016/1/RajiniMurugan/8.html  \nhttp://doctorhosts.com/2016/1/RajiniMurugan/9.html  \nhttp://doctorhosts.com/2016/1/RajiniMurugan/10.html\r\n\r\nFormat                                   : Matroska\r\nFormat version                           : Version 4 / Version 2\r\nFile size                                : 704 MiB\r\nDuration                                 : 2h 27mn\r\nOverall bit rate                         : 667 Kbps\r\nMovie name                               : Rajini Murugan 2016 Tamil Movies DVDScr XviD AAC Clean Audio New Source B3STY\r\n\r\nVideo\r\nID                                       : 1\r\nFormat                                   : AVC\r\nFormat/Info                              : Advanced Video Codec\r\nFormat profile                           :   \r\nFormat settings, CABAC                   : Yes\r\nFormat settings, ReFrames                : 4 frames\r\nCodec ID                                 : V_MPEG4/ISO/AVC\r\nDuration                                 : 2h 27mn\r\nBit rate                                 : 569 Kbps\r\nWidth                                    : 608 pixels\r\nHeight                                   : 256 pixels\r\nDisplay aspect ratio                     : 2.40:1\r\nFrame rate mode                          : Constant\r\nFrame rate                               : 25.000 fps\r\nColor space                              : YUV\r\nChroma subsampling                       : 4:2:0\r\nBit depth                                : 8 bits\r\nScan type                                : Progressive\r\nBits/(Pixel*Frame)                       : 0.146\r\nStream size                              : 588 MiB (84%)\r\nTitle                                    : B3STY\r\nWriting library                          : XviD\r\nLanguage                                 : Tamil\r\nDefault                                  : Yes\r\nForced                                   : Yes\r\n\r\nAudio\r\nID                                       : 2\r\nFormat                                   : MPEG Audio\r\nFormat version                           : Version 1\r\nFormat profile                           : Layer 3\r\nMode                                     : Joint stereo\r\nMode extension                           : MS Stereo\r\nCodec ID                                 : A_MPEG/L3\r\nCodec ID/Hint                            : MP3\r\nDuration                                 : 2h 27mn\r\nBit rate mode                            : Constant\r\nBit rate                                 : 96.0 Kbps\r\nChannel(s)                               : 2 channels\r\nSampling rate                            : 48.0 KHz\r\nCompression mode                         : Lossy\r\nStream size                              : 101 MiB (14%)\r\nTitle                                    : B3STY\r\nLanguage                                 : Tamil\r\nDefault                                  : Yes\r\nForced                                   : Yes\r\n\r\nIMDB                                      \nhttp://www.imdb.com/title/tt5332502/","torrent":{"xt":"urn:btih:583ddce7b23257bff8b9c580ca69be227a1eb6c5","amp;dn":"Rajini+Murugan+2016+Movies+DVDScr+XviD+Clean+Audio+New+B3STY","amp;tr":["udp%3A%2F%2Ftracker.leechers-paradise.org%3A6969","udp%3A%2F%2Fzer0day.ch%3A1337","udp%3A%2F%2Fopen.demonii.com%3A1337","udp%3A%2F%2Ftracker.coppersurfer.tk%3A6969","udp%3A%2F%2Fexodus.desync.com%3A6969"],"infoHash":"583ddce7b23257bff8b9c580ca69be227a1eb6c5","infoHashBuffer":{"type":"Buffer","data":[88,61,220,231,178,50,87,191,248,185,197,128,202,105,190,34,122,30,182,197]},"announce":[],"urlList":[]}}